# xmcd
#
# Track frame offsets: 
#        150
#        9635
#        24184
#        33402
#        45753
#        58378
#        69078
#        79696
#        88470
#        100831
#        110294
#        115950
#        127070
#        137376
#        150417
#        158833
#        169878
#        178390
#        189068
#        201246
#
# Disc length: 2817 seconds
#
# Revision: 4
# Processed by: cddbd v1.5.2PL0 Copyright (c) Steve Scherf et al.
# Submitted via: ExactAudioCopyFreeDBPlugin 1.0
#
DISCID=000aff14
DTITLE=Various Artist - Country Music
DYEAR=2009
DGENRE=Country
TTITLE0=Charley Pride - Kiss An Angel Good Morning
TTITLE1=Loretta Lynn - Coal Miner's Daughter
TTITLE2=George Jones - The Race Is On
TTITLE3=Glen Campbell - By The Time I Get To Phoenix
TTITLE4=Lynn Anderson - Rose Garden
TTITLE5=Patsy Cline - Honky Tonk Merry Go Round
TTITLE6=Waylon Jennings - Sally Was A Good Old Girl
TTITLE7=Willie Nelson - The Ghost
TTITLE8=Johnny Cash - I Walk The Line
TTITLE9=Lynn Anderson - Snowbird
TTITLE10=Loretta Lynn - The Pill
TTITLE11=Elvis Presley - Mystery Train
TTITLE12=Buck Owens - Excuse Me
TTITLE13=George Jones - Things Have Gone To Pieces
TTITLE14=Johnny Cash - Country Boy
TTITLE15=Patsy Cline - Hungry For Love
TTITLE16=Waylon Jennings - Abilene
TTITLE17=Charley Pride - Oklahoma Morning
TTITLE18=Lynn Anderson - Stand By Your Man
TTITLE19=Patsy Cline - Three Cigarettes In An Ashtray
EXTD=YEAR: 2009
EXTT0=
EXTT1=
EXTT2=
EXTT3=
EXTT4=
EXTT5=
EXTT6=
EXTT7=
EXTT8=
EXTT9=
EXTT10=
EXTT11=
EXTT12=
EXTT13=
EXTT14=
EXTT15=
EXTT16=
EXTT17=
EXTT18=
EXTT19=
PLAYORDER=
